<svg width="34" height="34" viewBox="0 0 34 34" fill="none" xmlns="http://www.w3.org/2000/svg">
<path d="M9.99998 0.333252H24C29.3333 0.333252 33.6666 4.66659 33.6666 9.99992V23.9999C33.6666 26.5637 32.6482 29.0224 30.8353 30.8353C29.0225 32.6481 26.5637 33.6666 24 33.6666H9.99998C4.66665 33.6666 0.333313 29.3333 0.333313 23.9999V9.99992C0.333313 7.43616 1.35176 4.97741 3.16461 3.16455C4.97747 1.3517 7.43622 0.333252 9.99998 0.333252ZM9.66665 3.66659C8.07535 3.66659 6.54922 4.29873 5.42401 5.42395C4.29879 6.54916 3.66665 8.07529 3.66665 9.66659V24.3333C3.66665 27.6499 6.34998 30.3333 9.66665 30.3333H24.3333C25.9246 30.3333 27.4507 29.7011 28.576 28.5759C29.7012 27.4507 30.3333 25.9246 30.3333 24.3333V9.66659C30.3333 6.34992 27.65 3.66659 24.3333 3.66659H9.66665ZM25.75 6.16659C26.3025 6.16659 26.8324 6.38608 27.2231 6.77678C27.6138 7.16748 27.8333 7.69738 27.8333 8.24992C27.8333 8.80245 27.6138 9.33236 27.2231 9.72306C26.8324 10.1138 26.3025 10.3333 25.75 10.3333C25.1974 10.3333 24.6675 10.1138 24.2768 9.72306C23.8861 9.33236 23.6666 8.80245 23.6666 8.24992C23.6666 7.69738 23.8861 7.16748 24.2768 6.77678C24.6675 6.38608 25.1974 6.16659 25.75 6.16659ZM17 8.66659C19.2101 8.66659 21.3297 9.54456 22.8925 11.1074C24.4553 12.6702 25.3333 14.7898 25.3333 16.9999C25.3333 19.2101 24.4553 21.3297 22.8925 22.8925C21.3297 24.4553 19.2101 25.3333 17 25.3333C14.7898 25.3333 12.6702 24.4553 11.1074 22.8925C9.54462 21.3297 8.66665 19.2101 8.66665 16.9999C8.66665 14.7898 9.54462 12.6702 11.1074 11.1074C12.6702 9.54456 14.7898 8.66659 17 8.66659ZM17 11.9999C15.6739 11.9999 14.4021 12.5267 13.4644 13.4644C12.5268 14.4021 12 15.6738 12 16.9999C12 18.326 12.5268 19.5978 13.4644 20.5355C14.4021 21.4731 15.6739 21.9999 17 21.9999C18.3261 21.9999 19.5978 21.4731 20.5355 20.5355C21.4732 19.5978 22 18.326 22 16.9999C22 15.6738 21.4732 14.4021 20.5355 13.4644C19.5978 12.5267 18.3261 11.9999 17 11.9999Z" fill="#232323"/>
</svg>
