<svg width="34" height="34" viewBox="0 0 34 34" fill="none" xmlns="http://www.w3.org/2000/svg">
<path d="M12.0666 32.8999C13.6666 33.3833 15.2833 33.6666 17 33.6666C21.4203 33.6666 25.6595 31.9106 28.7851 28.785C31.9107 25.6594 33.6666 21.4202 33.6666 16.9999C33.6666 14.8112 33.2356 12.644 32.398 10.6219C31.5604 8.59977 30.3327 6.76245 28.7851 5.21481C27.2375 3.66716 25.4001 2.4395 23.378 1.60193C21.3559 0.764348 19.1887 0.333252 17 0.333252C14.8113 0.333252 12.644 0.764348 10.6219 1.60193C8.59983 2.4395 6.76251 3.66716 5.21487 5.21481C2.08926 8.34041 0.333313 12.5796 0.333313 16.9999C0.333313 24.0833 4.78331 30.1666 11.0666 32.5666C10.9166 31.2666 10.7666 29.1166 11.0666 27.6333L12.9833 19.3999C12.9833 19.3999 12.5 18.4333 12.5 16.8999C12.5 14.5999 13.9333 12.8833 15.5666 12.8833C17 12.8833 17.6666 13.9333 17.6666 15.2833C17.6666 16.7166 16.7166 18.7666 16.2333 20.7333C15.95 22.3666 17.1 23.7999 18.7666 23.7999C21.7333 23.7999 24.0333 20.6333 24.0333 16.1666C24.0333 12.1666 21.1666 9.43325 17.05 9.43325C12.35 9.43325 9.58331 12.9333 9.58331 16.6166C9.58331 18.0499 10.05 19.4999 10.8166 20.4499C10.9666 20.5499 10.9666 20.6833 10.9166 20.9333L10.4333 22.7499C10.4333 23.0333 10.25 23.1333 9.96665 22.9333C7.83331 21.9999 6.59998 18.9666 6.59998 16.5166C6.59998 11.2499 10.3333 6.46659 17.5333 6.46659C23.2666 6.46659 27.7333 10.5833 27.7333 16.0499C27.7333 21.7833 24.1833 26.3833 19.1 26.3833C17.4833 26.3833 15.9 25.5166 15.3333 24.4999L14.2166 28.4499C13.8333 29.8833 12.7833 31.7999 12.0666 32.9499V32.8999Z" fill="#232323"/>
</svg>
